<mxfile host="app.diagrams.net" modified="2023-08-04T14:25:01.153Z" agent="Mozilla/5.0 (X11; Linux x86_64) AppleWebKit/537.36 (KHTML, like Gecko) Chrome/115.0.0.0 Safari/537.36" etag="zDDmDZzpl4ZbKtpfLfyk" version="21.6.6" type="device">
  <diagram name="Page-1" id="iIiar0x5rh6olEEfK-hi">
    <mxGraphModel dx="1597" dy="879" grid="1" gridSize="10" guides="1" tooltips="1" connect="1" arrows="1" fold="1" page="1" pageScale="1" pageWidth="850" pageHeight="1100" math="0" shadow="0">
      <root>
        <mxCell id="0" />
        <mxCell id="1" parent="0" />
        <mxCell id="qMsLRq_LPOjLAS0bArvF-2" value="Developer Notebook / VM" style="rounded=1;whiteSpace=wrap;html=1;fillColor=#f5f5f5;strokeColor=#666666;verticalAlign=top;align=left;spacingTop=20;fontSize=20;spacingLeft=40;fontColor=#333333;" parent="1" vertex="1">
          <mxGeometry x="50" y="40" width="910" height="760" as="geometry" />
        </mxCell>
        <mxCell id="gz2Yi-kyLkoLTa3RXbDF-60" value="containerlab uplink" style="rounded=1;whiteSpace=wrap;html=1;fillColor=#cdd9ea;strokeColor=#6c8ebf;align=left;verticalAlign=top;spacingTop=3;spacingLeft=4;" parent="1" vertex="1">
          <mxGeometry x="60" y="180" width="130" height="140" as="geometry" />
        </mxCell>
        <mxCell id="qMsLRq_LPOjLAS0bArvF-3" value="netns test" style="rounded=1;whiteSpace=wrap;html=1;align=left;labelPosition=center;verticalLabelPosition=middle;verticalAlign=top;spacingTop=15;spacingLeft=20;fontSize=20;fillColor=#d5e8d4;strokeColor=#82b366;" parent="1" vertex="1">
          <mxGeometry x="250" y="90" width="670" height="400" as="geometry" />
        </mxCell>
        <mxCell id="gz2Yi-kyLkoLTa3RXbDF-2" value="&lt;font style=&quot;font-size: 20px;&quot;&gt;kind (Kubernetes in Docker/Podman)&lt;/font&gt;" style="rounded=1;whiteSpace=wrap;html=1;align=left;labelPosition=center;verticalLabelPosition=middle;verticalAlign=top;spacingTop=15;spacingLeft=20;fillColor=#dae8fc;strokeColor=#6c8ebf;" parent="1" vertex="1">
          <mxGeometry x="370" y="550" width="410" height="230" as="geometry" />
        </mxCell>
        <mxCell id="gz2Yi-kyLkoLTa3RXbDF-3" value="127.0.0.1:38781" style="rounded=0;whiteSpace=wrap;html=1;fillColor=#d5e8d4;strokeColor=#82b366;" parent="1" vertex="1">
          <mxGeometry x="437.5" y="450" width="92.5" height="40" as="geometry" />
        </mxCell>
        <mxCell id="gz2Yi-kyLkoLTa3RXbDF-5" style="edgeStyle=orthogonalEdgeStyle;rounded=0;orthogonalLoop=1;jettySize=auto;html=1;exitX=0.5;exitY=0;exitDx=0;exitDy=0;entryX=0.5;entryY=1;entryDx=0;entryDy=0;startArrow=classic;startFill=1;" parent="1" source="gz2Yi-kyLkoLTa3RXbDF-4" target="gz2Yi-kyLkoLTa3RXbDF-3" edge="1">
          <mxGeometry relative="1" as="geometry">
            <Array as="points">
              <mxPoint x="320" y="560" />
              <mxPoint x="380" y="560" />
              <mxPoint x="380" y="520" />
              <mxPoint x="484" y="520" />
            </Array>
          </mxGeometry>
        </mxCell>
        <mxCell id="gz2Yi-kyLkoLTa3RXbDF-28" value="socat" style="edgeLabel;html=1;align=center;verticalAlign=middle;resizable=0;points=[];" parent="gz2Yi-kyLkoLTa3RXbDF-5" vertex="1" connectable="0">
          <mxGeometry x="-0.05" y="1" relative="1" as="geometry">
            <mxPoint as="offset" />
          </mxGeometry>
        </mxCell>
        <mxCell id="gz2Yi-kyLkoLTa3RXbDF-44" style="edgeStyle=orthogonalEdgeStyle;rounded=0;orthogonalLoop=1;jettySize=auto;html=1;exitX=1;exitY=0.5;exitDx=0;exitDy=0;entryX=0;entryY=0.5;entryDx=0;entryDy=0;startArrow=classic;startFill=1;" parent="1" source="gz2Yi-kyLkoLTa3RXbDF-4" target="gz2Yi-kyLkoLTa3RXbDF-43" edge="1">
          <mxGeometry relative="1" as="geometry" />
        </mxCell>
        <mxCell id="gz2Yi-kyLkoLTa3RXbDF-4" value="127.0.0.1:38781" style="rounded=0;whiteSpace=wrap;html=1;fillColor=#f5f5f5;fontColor=#333333;strokeColor=#666666;" parent="1" vertex="1">
          <mxGeometry x="270" y="625" width="100" height="40" as="geometry" />
        </mxCell>
        <mxCell id="gz2Yi-kyLkoLTa3RXbDF-11" style="edgeStyle=orthogonalEdgeStyle;rounded=0;orthogonalLoop=1;jettySize=auto;html=1;exitX=0.5;exitY=1;exitDx=0;exitDy=0;entryX=0.5;entryY=0;entryDx=0;entryDy=0;" parent="1" source="gz2Yi-kyLkoLTa3RXbDF-6" target="gz2Yi-kyLkoLTa3RXbDF-3" edge="1">
          <mxGeometry relative="1" as="geometry">
            <mxPoint x="358.75" y="450" as="targetPoint" />
            <Array as="points">
              <mxPoint x="484" y="440" />
              <mxPoint x="484" y="440" />
            </Array>
          </mxGeometry>
        </mxCell>
        <mxCell id="gz2Yi-kyLkoLTa3RXbDF-13" style="edgeStyle=orthogonalEdgeStyle;rounded=0;orthogonalLoop=1;jettySize=auto;html=1;exitX=1;exitY=0.5;exitDx=0;exitDy=0;entryX=0.5;entryY=1;entryDx=0;entryDy=0;" parent="1" source="gz2Yi-kyLkoLTa3RXbDF-6" target="gz2Yi-kyLkoLTa3RXbDF-12" edge="1">
          <mxGeometry relative="1" as="geometry">
            <Array as="points">
              <mxPoint x="575" y="400" />
            </Array>
          </mxGeometry>
        </mxCell>
        <mxCell id="gz2Yi-kyLkoLTa3RXbDF-6" value="network-operator" style="rounded=0;whiteSpace=wrap;html=1;fillColor=#e6d0de;gradientColor=#d5739d;strokeColor=#996185;" parent="1" vertex="1">
          <mxGeometry x="423.75" y="370" width="120" height="60" as="geometry" />
        </mxCell>
        <mxCell id="gz2Yi-kyLkoLTa3RXbDF-8" value="veth: ens1f1" style="rounded=0;whiteSpace=wrap;html=1;fillColor=#f8cecc;strokeColor=#b85450;" parent="1" vertex="1">
          <mxGeometry x="250" y="240" width="70" height="20" as="geometry" />
        </mxCell>
        <mxCell id="gz2Yi-kyLkoLTa3RXbDF-9" value="veth: ens2f0" style="rounded=0;whiteSpace=wrap;html=1;fillColor=#f8cecc;strokeColor=#b85450;" parent="1" vertex="1">
          <mxGeometry x="250" y="260" width="70" height="20" as="geometry" />
        </mxCell>
        <mxCell id="gz2Yi-kyLkoLTa3RXbDF-20" style="edgeStyle=orthogonalEdgeStyle;rounded=0;orthogonalLoop=1;jettySize=auto;html=1;exitX=0;exitY=0;exitDx=0;exitDy=0;entryX=1;entryY=0.5;entryDx=0;entryDy=0;" parent="1" source="gz2Yi-kyLkoLTa3RXbDF-10" target="gz2Yi-kyLkoLTa3RXbDF-16" edge="1">
          <mxGeometry relative="1" as="geometry">
            <Array as="points">
              <mxPoint x="390" y="230" />
              <mxPoint x="390" y="230" />
            </Array>
          </mxGeometry>
        </mxCell>
        <mxCell id="gz2Yi-kyLkoLTa3RXbDF-21" style="edgeStyle=orthogonalEdgeStyle;rounded=0;orthogonalLoop=1;jettySize=auto;html=1;exitX=0;exitY=0.25;exitDx=0;exitDy=0;entryX=1;entryY=0.5;entryDx=0;entryDy=0;" parent="1" source="gz2Yi-kyLkoLTa3RXbDF-10" target="gz2Yi-kyLkoLTa3RXbDF-8" edge="1">
          <mxGeometry relative="1" as="geometry">
            <Array as="points">
              <mxPoint x="490" y="230" />
              <mxPoint x="390" y="230" />
              <mxPoint x="390" y="250" />
            </Array>
          </mxGeometry>
        </mxCell>
        <mxCell id="gz2Yi-kyLkoLTa3RXbDF-22" style="edgeStyle=orthogonalEdgeStyle;rounded=0;orthogonalLoop=1;jettySize=auto;html=1;exitX=0;exitY=0.5;exitDx=0;exitDy=0;entryX=1;entryY=0.5;entryDx=0;entryDy=0;" parent="1" source="gz2Yi-kyLkoLTa3RXbDF-10" target="gz2Yi-kyLkoLTa3RXbDF-9" edge="1">
          <mxGeometry relative="1" as="geometry">
            <Array as="points">
              <mxPoint x="490" y="250" />
              <mxPoint x="400" y="250" />
              <mxPoint x="400" y="270" />
            </Array>
          </mxGeometry>
        </mxCell>
        <mxCell id="gz2Yi-kyLkoLTa3RXbDF-23" style="edgeStyle=orthogonalEdgeStyle;rounded=0;orthogonalLoop=1;jettySize=auto;html=1;exitX=0;exitY=1;exitDx=0;exitDy=0;entryX=1;entryY=0.5;entryDx=0;entryDy=0;" parent="1" source="gz2Yi-kyLkoLTa3RXbDF-10" target="gz2Yi-kyLkoLTa3RXbDF-15" edge="1">
          <mxGeometry relative="1" as="geometry">
            <Array as="points">
              <mxPoint x="410" y="270" />
              <mxPoint x="410" y="290" />
            </Array>
          </mxGeometry>
        </mxCell>
        <mxCell id="gz2Yi-kyLkoLTa3RXbDF-56" style="edgeStyle=orthogonalEdgeStyle;rounded=0;orthogonalLoop=1;jettySize=auto;html=1;exitX=1;exitY=0.5;exitDx=0;exitDy=0;entryX=0;entryY=0.5;entryDx=0;entryDy=0;endArrow=none;endFill=0;" parent="1" source="gz2Yi-kyLkoLTa3RXbDF-10" target="gz2Yi-kyLkoLTa3RXbDF-39" edge="1">
          <mxGeometry relative="1" as="geometry" />
        </mxCell>
        <mxCell id="gz2Yi-kyLkoLTa3RXbDF-10" value="frr" style="rounded=0;whiteSpace=wrap;html=1;fillColor=#ffe6cc;strokeColor=#d79b00;" parent="1" vertex="1">
          <mxGeometry x="390" y="230" width="120" height="60" as="geometry" />
        </mxCell>
        <mxCell id="gz2Yi-kyLkoLTa3RXbDF-14" style="edgeStyle=orthogonalEdgeStyle;rounded=0;orthogonalLoop=1;jettySize=auto;html=1;exitX=0.5;exitY=0;exitDx=0;exitDy=0;entryX=0.5;entryY=1;entryDx=0;entryDy=0;" parent="1" source="gz2Yi-kyLkoLTa3RXbDF-12" target="gz2Yi-kyLkoLTa3RXbDF-10" edge="1">
          <mxGeometry relative="1" as="geometry">
            <Array as="points">
              <mxPoint x="575" y="310" />
              <mxPoint x="450" y="310" />
            </Array>
          </mxGeometry>
        </mxCell>
        <mxCell id="gz2Yi-kyLkoLTa3RXbDF-12" value="/usr/sbin/vtysh" style="rounded=0;whiteSpace=wrap;html=1;" parent="1" vertex="1">
          <mxGeometry x="530" y="340" width="90" height="20" as="geometry" />
        </mxCell>
        <mxCell id="gz2Yi-kyLkoLTa3RXbDF-15" value="veth: ens2f1" style="rounded=0;whiteSpace=wrap;html=1;fillColor=#f8cecc;strokeColor=#b85450;" parent="1" vertex="1">
          <mxGeometry x="250" y="280" width="70" height="20" as="geometry" />
        </mxCell>
        <mxCell id="gz2Yi-kyLkoLTa3RXbDF-16" value="veth: ens1f0" style="rounded=0;whiteSpace=wrap;html=1;fillColor=#f8cecc;strokeColor=#b85450;" parent="1" vertex="1">
          <mxGeometry x="250" y="220" width="70" height="20" as="geometry" />
        </mxCell>
        <mxCell id="gz2Yi-kyLkoLTa3RXbDF-25" value="localhost:7080" style="rounded=0;whiteSpace=wrap;html=1;fillColor=#d5e8d4;strokeColor=#82b366;" parent="1" vertex="1">
          <mxGeometry x="423.75" y="330" width="100" height="40" as="geometry" />
        </mxCell>
        <mxCell id="gz2Yi-kyLkoLTa3RXbDF-27" style="edgeStyle=orthogonalEdgeStyle;rounded=0;orthogonalLoop=1;jettySize=auto;html=1;entryX=0;entryY=0.5;entryDx=0;entryDy=0;startArrow=classic;startFill=1;" parent="1" source="gz2Yi-kyLkoLTa3RXbDF-26" target="gz2Yi-kyLkoLTa3RXbDF-25" edge="1">
          <mxGeometry relative="1" as="geometry">
            <Array as="points">
              <mxPoint x="320" y="350" />
            </Array>
          </mxGeometry>
        </mxCell>
        <mxCell id="gz2Yi-kyLkoLTa3RXbDF-29" value="socat" style="edgeLabel;html=1;align=center;verticalAlign=middle;resizable=0;points=[];" parent="gz2Yi-kyLkoLTa3RXbDF-27" vertex="1" connectable="0">
          <mxGeometry x="-0.2925" relative="1" as="geometry">
            <mxPoint as="offset" />
          </mxGeometry>
        </mxCell>
        <mxCell id="gz2Yi-kyLkoLTa3RXbDF-26" value="localhost:7080" style="rounded=0;whiteSpace=wrap;html=1;fillColor=#f5f5f5;fontColor=#333333;strokeColor=#666666;" parent="1" vertex="1">
          <mxGeometry x="270" y="500" width="100" height="40" as="geometry" />
        </mxCell>
        <mxCell id="gz2Yi-kyLkoLTa3RXbDF-31" value="veth: cp1" style="rounded=0;whiteSpace=wrap;html=1;fillColor=#f5f5f5;fontColor=#333333;strokeColor=#666666;" parent="1" vertex="1">
          <mxGeometry x="190" y="220" width="60" height="20" as="geometry" />
        </mxCell>
        <mxCell id="gz2Yi-kyLkoLTa3RXbDF-32" value="veth: cp2" style="rounded=0;whiteSpace=wrap;html=1;fillColor=#f5f5f5;fontColor=#333333;strokeColor=#666666;" parent="1" vertex="1">
          <mxGeometry x="190" y="240" width="60" height="20" as="geometry" />
        </mxCell>
        <mxCell id="gz2Yi-kyLkoLTa3RXbDF-33" value="veth: cp3" style="rounded=0;whiteSpace=wrap;html=1;fillColor=#f5f5f5;fontColor=#333333;strokeColor=#666666;" parent="1" vertex="1">
          <mxGeometry x="190" y="260" width="60" height="20" as="geometry" />
        </mxCell>
        <mxCell id="gz2Yi-kyLkoLTa3RXbDF-34" value="veth: cp4" style="rounded=0;whiteSpace=wrap;html=1;fillColor=#f5f5f5;fontColor=#333333;strokeColor=#666666;" parent="1" vertex="1">
          <mxGeometry x="190" y="280" width="60" height="20" as="geometry" />
        </mxCell>
        <mxCell id="gz2Yi-kyLkoLTa3RXbDF-35" value="bridge:&amp;nbsp;srv5-p1" style="rounded=0;whiteSpace=wrap;html=1;" parent="1" vertex="1">
          <mxGeometry x="90" y="220" width="100" height="20" as="geometry" />
        </mxCell>
        <mxCell id="gz2Yi-kyLkoLTa3RXbDF-36" value="bridge:&amp;nbsp;srv5-p2" style="rounded=0;whiteSpace=wrap;html=1;" parent="1" vertex="1">
          <mxGeometry x="90" y="240" width="100" height="20" as="geometry" />
        </mxCell>
        <mxCell id="gz2Yi-kyLkoLTa3RXbDF-37" value="bridge:&amp;nbsp;srv4-p1" style="rounded=0;whiteSpace=wrap;html=1;" parent="1" vertex="1">
          <mxGeometry x="90" y="260" width="100" height="20" as="geometry" />
        </mxCell>
        <mxCell id="gz2Yi-kyLkoLTa3RXbDF-38" value="bridge:&amp;nbsp;srv4-p2" style="rounded=0;whiteSpace=wrap;html=1;" parent="1" vertex="1">
          <mxGeometry x="90" y="280" width="100" height="20" as="geometry" />
        </mxCell>
        <mxCell id="gz2Yi-kyLkoLTa3RXbDF-39" value="dum.underlay&lt;br&gt;233.252.0.0/32" style="ellipse;whiteSpace=wrap;html=1;fillColor=#f8cecc;strokeColor=#b85450;" parent="1" vertex="1">
          <mxGeometry x="551.25" y="210" width="140" height="40" as="geometry" />
        </mxCell>
        <mxCell id="gz2Yi-kyLkoLTa3RXbDF-42" value="vx.5050" style="square;whiteSpace=wrap;html=1;" parent="1" vertex="1">
          <mxGeometry x="620" y="190" width="81.25" height="20" as="geometry" />
        </mxCell>
        <mxCell id="gz2Yi-kyLkoLTa3RXbDF-43" value="127.0.0.1:38781" style="rounded=0;whiteSpace=wrap;html=1;fillColor=#dae8fc;strokeColor=#6c8ebf;" parent="1" vertex="1">
          <mxGeometry x="450" y="625" width="100" height="40" as="geometry" />
        </mxCell>
        <mxCell id="gz2Yi-kyLkoLTa3RXbDF-46" value="br.cluster" style="rounded=0;whiteSpace=wrap;html=1;fillColor=#d5e8d4;strokeColor=#82b366;" parent="1" vertex="1">
          <mxGeometry x="620" y="160" width="81.25" height="30" as="geometry" />
        </mxCell>
        <mxCell id="gz2Yi-kyLkoLTa3RXbDF-41" value="vx.500" style="square;whiteSpace=wrap;html=1;" parent="1" vertex="1">
          <mxGeometry x="620" y="250" width="80" height="20" as="geometry" />
        </mxCell>
        <mxCell id="gz2Yi-kyLkoLTa3RXbDF-52" style="edgeStyle=orthogonalEdgeStyle;rounded=0;orthogonalLoop=1;jettySize=auto;html=1;entryX=0;entryY=0.5;entryDx=0;entryDy=0;" parent="1" source="gz2Yi-kyLkoLTa3RXbDF-51" target="gz2Yi-kyLkoLTa3RXbDF-4" edge="1">
          <mxGeometry relative="1" as="geometry" />
        </mxCell>
        <mxCell id="gz2Yi-kyLkoLTa3RXbDF-53" value="kubectl apply" style="edgeLabel;html=1;align=center;verticalAlign=middle;resizable=0;points=[];" parent="gz2Yi-kyLkoLTa3RXbDF-52" vertex="1" connectable="0">
          <mxGeometry x="-0.1333" y="-1" relative="1" as="geometry">
            <mxPoint as="offset" />
          </mxGeometry>
        </mxCell>
        <mxCell id="gz2Yi-kyLkoLTa3RXbDF-51" value="network-operator&lt;br&gt;install &lt;br&gt;manifests" style="shape=note;whiteSpace=wrap;html=1;backgroundOutline=1;darkOpacity=0.05;" parent="1" vertex="1">
          <mxGeometry x="80" y="585" width="100" height="120" as="geometry" />
        </mxCell>
        <mxCell id="gz2Yi-kyLkoLTa3RXbDF-54" value="veth: def_mgmt" style="rounded=0;whiteSpace=wrap;html=1;fillColor=#d5e8d4;strokeColor=#82b366;" parent="1" vertex="1">
          <mxGeometry x="706.25" y="215" width="123.75" height="20" as="geometry" />
        </mxCell>
        <mxCell id="gz2Yi-kyLkoLTa3RXbDF-55" value="veth: mgmt_def" style="rounded=0;whiteSpace=wrap;html=1;fillColor=#e1d5e7;strokeColor=#9673a6;" parent="1" vertex="1">
          <mxGeometry x="706.25" y="235" width="123.75" height="20" as="geometry" />
        </mxCell>
        <mxCell id="gz2Yi-kyLkoLTa3RXbDF-47" value="br.mgmt" style="rounded=0;whiteSpace=wrap;html=1;fillColor=#e1d5e7;strokeColor=#9673a6;" parent="1" vertex="1">
          <mxGeometry x="620" y="270" width="80" height="30" as="geometry" />
        </mxCell>
        <mxCell id="gz2Yi-kyLkoLTa3RXbDF-50" value="VRF:&amp;nbsp;&lt;br&gt;Vrf_mgmt" style="ellipse;shape=cloud;whiteSpace=wrap;html=1;fillColor=#e1d5e7;strokeColor=#9673a6;" parent="1" vertex="1">
          <mxGeometry x="690" y="245" width="140" height="80" as="geometry" />
        </mxCell>
        <mxCell id="gz2Yi-kyLkoLTa3RXbDF-49" value="VRF: default" style="ellipse;shape=cloud;whiteSpace=wrap;html=1;fillColor=#d5e8d4;strokeColor=#82b366;" parent="1" vertex="1">
          <mxGeometry x="691.25" y="140" width="120" height="80" as="geometry" />
        </mxCell>
        <mxCell id="gz2Yi-kyLkoLTa3RXbDF-57" value="VRF:&lt;br&gt;Vrf_underlay" style="ellipse;shape=cloud;whiteSpace=wrap;html=1;fillColor=#f8cecc;strokeColor=#b85450;" parent="1" vertex="1">
          <mxGeometry x="380" y="150" width="120" height="80" as="geometry" />
        </mxCell>
        <mxCell id="gz2Yi-kyLkoLTa3RXbDF-58" value="VRF:&lt;br&gt;Vrf_coil" style="ellipse;shape=cloud;whiteSpace=wrap;html=1;fillColor=#dae8fc;strokeColor=#6c8ebf;" parent="1" vertex="1">
          <mxGeometry x="780" y="140" width="120" height="80" as="geometry" />
        </mxCell>
        <mxCell id="gz2Yi-kyLkoLTa3RXbDF-59" value="VRF:&lt;br&gt;Vrf_kubevip" style="ellipse;shape=cloud;whiteSpace=wrap;html=1;fillColor=#e6ecf5;strokeColor=#6c8ebf;" parent="1" vertex="1">
          <mxGeometry x="706.25" y="90" width="120" height="80" as="geometry" />
        </mxCell>
        <mxCell id="gz2Yi-kyLkoLTa3RXbDF-61" value="VRF:&lt;br&gt;Vrf_nwop" style="ellipse;shape=cloud;whiteSpace=wrap;html=1;fillColor=#e6d0de;strokeColor=#996185;gradientColor=#d5739d;" parent="1" vertex="1">
          <mxGeometry x="800" y="80" width="120" height="80" as="geometry" />
        </mxCell>
        <mxCell id="gz2Yi-kyLkoLTa3RXbDF-62" value="kubelet" style="rounded=0;whiteSpace=wrap;html=1;" parent="1" vertex="1">
          <mxGeometry x="571.25" y="675" width="120" height="60" as="geometry" />
        </mxCell>
        <mxCell id="gz2Yi-kyLkoLTa3RXbDF-7" value="kube-apiserver" style="rounded=0;whiteSpace=wrap;html=1;" parent="1" vertex="1">
          <mxGeometry x="550" y="625" width="120" height="60" as="geometry" />
        </mxCell>
        <mxCell id="iUtKIoAyqYSrgm7YZu6i-1" value="198.51.100.0/32" style="ellipse;whiteSpace=wrap;html=1;fillColor=#d5e8d4;strokeColor=#82b366;" vertex="1" parent="1">
          <mxGeometry x="559" y="130" width="111" height="40" as="geometry" />
        </mxCell>
      </root>
    </mxGraphModel>
  </diagram>
</mxfile>
